Coordinates
version=1
nRows=24
nColumns=24
inDegrees=yes

Units are S.I. units (second, meters, Newtons, ...)
Angles are in degrees.

endheader
time	pelvis_tilt	pelvis_list	pelvis_rotation	pelvis_tx	pelvis_ty	pelvis_tz	hip_flexion_r	hip_adduction_r	hip_rotation_r	knee_angle_r	ankle_angle_r	subtalar_angle_r	mtp_angle_r	hip_flexion_l	hip_adduction_l	hip_rotation_l	knee_angle_l	ankle_angle_l	subtalar_angle_l	mtp_angle_l	lumbar_extension	lumbar_bending	lumbar_rotation
      1.23300000	     -4.14090985	      2.56020169	     -1.22383659	      0.22751443	      1.02806944	      0.26368696	     19.33532239	     -3.34253861	     -6.09033728	    -62.60467976	      0.34271550	     -7.52647533	      7.04684372	     12.19850187	      6.44997067	      2.07285791	    -11.41040565	      3.80333268	     -7.81185834	     -0.34360947	     -1.14713771	     -3.65661022	      1.91398940
      1.23716667	     -4.16664963	      2.48625518	     -1.32240021	      0.23286972	      1.02870828	      0.26352393	     19.88899972	     -3.18506566	     -5.85847987	    -62.25317700	      1.00819114	     -7.67797418	      6.96374010	     11.78515938	      6.37545753	      2.03195522	    -11.19901461	      3.94022155	     -7.80907499	     -0.38988354	     -1.17910126	     -3.52224268	      1.91597471
      1.24133333	     -4.18844487	      2.39865093	     -1.41961398	      0.23827286	      1.02935336	      0.26337823	     20.41359894	     -3.01022584	     -5.63736542	    -61.82256260	      1.61255492	     -7.84226365	      6.92371201	     11.35336268	      6.28539201	      1.98900875	    -10.96415437	      4.08944321	     -7.80698802	     -0.41490756	     -1.16448809	     -3.38645231	      1.90668847
      1.24550000	     -4.22695520	      2.31959550	     -1.54335342	      0.24363279	      1.02992721	      0.26329500	     20.95928636	     -2.82730321	     -5.37537869	    -61.36319345	      2.27366296	     -7.87854241	      5.18573498	     10.96459897	      6.18851446	      1.81488928	    -10.78056402	      4.34622111	     -7.55052742	     -1.34885730	     -1.15453130	     -3.26411858	      2.07638808
      1.24966667	     -4.24013890	      2.24840525	     -1.63688094	      0.24900334	      1.03052229	      0.26314866	     21.45339839	     -2.67060955	     -5.15861643	    -60.83245887	      2.83287472	     -8.03096917	      5.17865697	     10.51820982	      6.12245790	      1.80469817	    -10.52980718	      4.47112295	     -7.60419212	     -1.35833878	     -1.17657237	     -3.13267802	      2.01289716
      1.25383333	     -4.26693130	      2.17017809	     -1.73900642	      0.25436462	      1.03107958	      0.26304232	     21.94821186	     -2.49487249	     -4.92654038	    -60.24267490	      3.35038879	     -8.15170114	      5.16779407	     10.08701977	      6.04520356	      1.77770727	    -10.27927513	      4.59024169	     -7.62981924	     -1.37087379	     -1.18964852	     -3.00120035	      1.97953697
      1.25800000	     -4.28536444	      2.08686735	     -1.84142518	      0.25970535	      1.03160271	      0.26294616	     22.42075441	     -2.31206267	     -4.69645370	    -59.60201164	      3.84195360	     -8.26323166	      5.15149195	      9.65149150	      5.96233717	      1.73570920	    -10.03598975	      4.71773590	     -7.64294248	     -1.38731503	     -1.21443138	     -2.86325817	      1.96457647
      1.26216667	     -4.28041065	      1.99202578	     -1.94141828	      0.26502935	      1.03215830	      0.26286880	     22.84602649	     -2.11194780	     -4.46442414	    -58.89337971	      4.30078143	     -8.35085976	      5.10702179	      9.19353410	      5.86803647	      1.69428080	     -9.79787217	      4.84407393	     -7.63390357	     -1.42440167	     -1.28642665	     -2.72462163	      1.97262175
      1.26633333	     -4.31333407	      1.92302609	     -2.04079314	      0.27036289	      1.03259003	      0.26279179	     23.30631151	     -1.94381454	     -4.24063406	    -58.15243471	      4.70954065	     -8.48177983	      5.08364240	      8.77444653	      5.80247937	      1.64387220	     -9.55293960	      4.98490267	     -7.63884084	     -1.44529139	     -1.27842696	     -2.60189817	      1.95988635
      1.27050000	     -4.34553513	      1.84588847	     -2.13453512	      0.27566508	      1.03298674	      0.26273285	     23.74872654	     -1.76223688	     -4.01506274	    -57.35616581	      5.08465729	     -8.59842897	      5.05265401	      8.36345480	      5.72827017	      1.59483814	     -9.32314031	      5.12144090	     -7.64201794	     -1.47249704	     -1.29016942	     -2.47777519	      1.95315080
      1.27466667	     -4.36138532	      1.76045335	     -2.22148326	      0.28095568	      1.03339145	      0.26266885	     24.15176067	     -1.57503598	     -3.80089100	    -56.49878903	      5.41985676	     -8.71758231	      5.01690538	      7.93684329	      5.64867653	      1.55037142	     -9.09591282	      5.26073969	     -7.64410957	     -1.50361248	     -1.32150362	     -2.33918733	      1.94482484
      1.27883333	     -4.34419741	      1.67446107	     -2.30019378	      0.28622683	      1.03381328	      0.26261575	     24.49776255	     -1.38812499	     -3.59194810	    -55.57859729	      5.65825889	     -8.87147565	      4.88909640	      7.47469127	      5.57090209	      1.51833345	     -8.86515997	      5.40149123	     -7.62401702	     -1.61058485	     -1.41170036	     -2.21978467	      1.94809190
      1.28300000	     -4.38291373	      1.58900474	     -2.37049862	      0.29146387	      1.03410303	      0.26256010	     24.89234748	     -1.20268829	     -3.38945297	    -54.62041214	      5.93181846	     -8.98823252	      4.82032562	      7.09290448	      5.49299926	      1.47993382	     -8.67259745	      5.53605292	     -7.64986687	     -1.67107950	     -1.42401730	     -2.09610866	      1.92234772
      1.28716667	     -4.42650384	      1.52544525	     -2.42717842	      0.29670203	      1.03433357	      0.26248925	     25.27978350	     -1.04792384	     -3.20141520	    -53.62755703	      6.16399740	     -9.13294583	      2.93902840	      6.70397822	      5.44651530	      1.50850754	     -8.45328487	      5.70720959	     -7.69863834	     -3.37294480	     -1.42566596	     -1.99275497	      1.84367276
      1.29133333	     -4.45652279	      1.44210201	     -2.48717740	      0.30192709	      1.03456321	      0.26242954	     25.62607781	     -0.87254114	     -3.01576174	    -52.56483047	      6.35496646	     -9.23760428	      2.93309030	      6.31612704	      5.37472290	      1.47122105	     -8.26221196	      5.84162767	     -7.71690774	     -3.37813711	     -1.45507543	     -1.86669443	      1.83164843
      1.29550000	     -4.49929203	      1.37945380	     -2.53642165	      0.30713101	      1.03471387	      0.26236882	     25.97464065	     -0.72466102	     -2.83989798	    -51.46428248	      6.47838501	     -9.39171547	      2.91899391	      5.94472750	      5.32715843	      1.45835932	     -8.07090763	      5.97924238	     -7.74536344	     -3.39026273	     -1.46726798	     -1.76832315	      1.79338810
      1.29966667	     -4.53214967	      1.31232456	     -2.57264607	      0.31232755	      1.03485659	      0.26229732	     26.28829160	     -0.57997792	     -2.68242799	    -50.30458045	      6.55174909	     -9.56184650	      2.89742538	      5.56442669	      5.27717069	      1.46040736	     -7.88127778	      6.11225266	     -7.78403350	     -3.40996881	     -1.49228352	     -1.66323329	      1.73977010
      1.30383333	     -4.57722993	      1.24764942	     -2.60162095	      0.31751904	      1.03494653	      0.26222297	     26.59463567	     -0.44113248	     -2.53365570	    -49.09422690	      6.58965920	     -9.73813479	      2.87008409	      5.20092602	      5.23070615	      1.47106128	     -7.69759177	      6.24168606	     -7.82922873	     -3.43536707	     -1.50390200	     -1.56176534	      1.67468117
      1.30800000	     -4.62090366	      1.18999635	     -2.61981253	      0.32269987	      1.03499563	      0.26213849	     26.88073076	     -0.31845735	     -2.40202537	    -47.83691814	      6.58911135	     -9.92732260	      2.83633248	      4.83906113	      5.19339653	      1.49012840	     -7.51653016	      6.36959010	     -7.87844887	     -3.46730199	     -1.51882253	     -1.46784367	      1.59877329
      1.31216667	     -4.66129879	      1.13721760	     -2.62853552	      0.32788374	      1.03502848	      0.26205368	     27.13882996	     -0.20664916	     -2.28141191	    -46.52551916	      6.54867386	    -10.12159465	      2.79571652	      4.47624232	      5.16191905	      1.51740578	     -7.34113061	      6.49037008	     -7.92806651	     -3.50607200	     -1.53372948	     -1.38348423	      1.51399215
      1.31633333	     -4.70781737	      1.09974141	     -2.62991272	      0.33306082	      1.03500163	      0.26197171	     27.38875916	     -0.11727809	     -2.17675300	    -45.17278386	      6.43738733	    -10.37458581	      2.72933562	      4.11626825	      5.14682771	      1.55775892	     -7.15147537	      6.60599262	     -7.98172172	     -3.57324689	     -1.54730218	     -1.33560993	      1.39676230
      1.32050000	     -4.76496468	      1.06703270	     -2.62097989	      0.33823926	      1.03491897	      0.26187344	     27.62891153	     -0.04237672	     -2.09117029	    -43.77794433	      6.35282431	    -10.56166422	      2.66685646	      3.77966284	      5.13694550	      1.58651713	     -6.98768532	      6.72333296	     -8.03442748	     -3.63659067	     -1.53693307	     -1.26884954	      1.30054846
      1.32466667	     -4.84074355	      1.02892527	     -2.60620382	      0.34342526	      1.03478354	      0.26178106	     27.86486247	      0.03417626	     -2.02416276	    -42.33158562	      6.23227282	    -10.76216951	      2.59924911	      3.46239693	      5.11969022	      1.61535658	     -6.82267720	      6.84038244	     -8.07955408	     -3.70330300	     -1.51866174	     -1.21556624	      1.19581090
      1.32883333	     -4.89670151	      0.99891969	     -2.58274197	      0.34860414	      1.03465372	      0.26168835	     28.05444675	      0.10041147	     -1.95415364	    -40.83243253	      6.06735431	    -10.98527994	      2.51383295	      3.12915673	      5.11214685	      1.65713890	     -6.66841890	      6.94833330	     -8.11881382	     -3.78780364	     -1.51890326	     -1.16307118	      1.07148828
